<mxfile host="app.diagrams.net" modified="2022-07-31T16:52:02.749Z" agent="5.0 (Windows NT 10.0; Win64; x64) AppleWebKit/537.36 (KHTML, like Gecko) Chrome/103.0.0.0 Safari/537.36" etag="wod-WFWeYTUDxrAmdZi4" version="20.2.0" type="github" pages="2">
  <diagram id="bSEXWe7huGikY-fucAUu" name="Page-1">
    <mxGraphModel dx="903" dy="912" grid="1" gridSize="10" guides="1" tooltips="1" connect="1" arrows="1" fold="1" page="1" pageScale="1" pageWidth="827" pageHeight="1169" math="0" shadow="0">
      <root>
        <mxCell id="0" />
        <mxCell id="1" parent="0" />
        <mxCell id="b73eLgdvhU1wZWccT1lE-79" style="edgeStyle=orthogonalEdgeStyle;rounded=0;orthogonalLoop=1;jettySize=auto;html=1;entryX=0.5;entryY=0;entryDx=0;entryDy=0;" parent="1" source="CSsvvFtggRQ0JvxHW23I-3" target="CSsvvFtggRQ0JvxHW23I-4" edge="1">
          <mxGeometry relative="1" as="geometry" />
        </mxCell>
        <mxCell id="CSsvvFtggRQ0JvxHW23I-3" value="Проверка целостности данных (наличие пропусков, NaN)" style="rounded=0;whiteSpace=wrap;html=1;" parent="1" vertex="1">
          <mxGeometry x="969" y="288" width="180" height="40" as="geometry" />
        </mxCell>
        <mxCell id="b73eLgdvhU1wZWccT1lE-72" value="" style="edgeStyle=orthogonalEdgeStyle;rounded=0;orthogonalLoop=1;jettySize=auto;html=1;" parent="1" source="CSsvvFtggRQ0JvxHW23I-4" target="b73eLgdvhU1wZWccT1lE-8" edge="1">
          <mxGeometry relative="1" as="geometry" />
        </mxCell>
        <mxCell id="b73eLgdvhU1wZWccT1lE-80" style="edgeStyle=orthogonalEdgeStyle;rounded=0;orthogonalLoop=1;jettySize=auto;html=1;entryX=0.5;entryY=0;entryDx=0;entryDy=0;" parent="1" source="CSsvvFtggRQ0JvxHW23I-4" target="b73eLgdvhU1wZWccT1lE-4" edge="1">
          <mxGeometry relative="1" as="geometry" />
        </mxCell>
        <mxCell id="CSsvvFtggRQ0JvxHW23I-4" value="Поиск аномалий в данных" style="rounded=0;whiteSpace=wrap;html=1;" parent="1" vertex="1">
          <mxGeometry x="969" y="370" width="180" height="40" as="geometry" />
        </mxCell>
        <mxCell id="b73eLgdvhU1wZWccT1lE-3" value="Модуль обработки данных&amp;nbsp;" style="strokeWidth=2;html=1;shape=mxgraph.flowchart.multi-document;whiteSpace=wrap;" parent="1" vertex="1">
          <mxGeometry x="839" y="200" width="88" height="70" as="geometry" />
        </mxCell>
        <mxCell id="b73eLgdvhU1wZWccT1lE-82" style="edgeStyle=orthogonalEdgeStyle;rounded=0;orthogonalLoop=1;jettySize=auto;html=1;entryX=0.5;entryY=0;entryDx=0;entryDy=0;" parent="1" source="b73eLgdvhU1wZWccT1lE-4" target="b73eLgdvhU1wZWccT1lE-5" edge="1">
          <mxGeometry relative="1" as="geometry" />
        </mxCell>
        <mxCell id="b73eLgdvhU1wZWccT1lE-4" value="Кластеризация данных" style="rounded=0;whiteSpace=wrap;html=1;" parent="1" vertex="1">
          <mxGeometry x="969" y="447.75" width="180" height="42.25" as="geometry" />
        </mxCell>
        <mxCell id="b73eLgdvhU1wZWccT1lE-83" style="edgeStyle=orthogonalEdgeStyle;rounded=0;orthogonalLoop=1;jettySize=auto;html=1;entryX=0.5;entryY=0;entryDx=0;entryDy=0;" parent="1" source="b73eLgdvhU1wZWccT1lE-5" target="b73eLgdvhU1wZWccT1lE-6" edge="1">
          <mxGeometry relative="1" as="geometry" />
        </mxCell>
        <mxCell id="b73eLgdvhU1wZWccT1lE-5" value="Feature analysis" style="rounded=0;whiteSpace=wrap;html=1;" parent="1" vertex="1">
          <mxGeometry x="969" y="520" width="180" height="40" as="geometry" />
        </mxCell>
        <mxCell id="b73eLgdvhU1wZWccT1lE-84" style="edgeStyle=orthogonalEdgeStyle;rounded=0;orthogonalLoop=1;jettySize=auto;html=1;entryX=0.5;entryY=0;entryDx=0;entryDy=0;" parent="1" source="b73eLgdvhU1wZWccT1lE-6" target="b73eLgdvhU1wZWccT1lE-7" edge="1">
          <mxGeometry relative="1" as="geometry" />
        </mxCell>
        <mxCell id="b73eLgdvhU1wZWccT1lE-6" value="Построение моделей прогнозирования" style="rounded=0;whiteSpace=wrap;html=1;" parent="1" vertex="1">
          <mxGeometry x="969" y="590" width="180" height="50" as="geometry" />
        </mxCell>
        <mxCell id="b73eLgdvhU1wZWccT1lE-73" value="" style="edgeStyle=orthogonalEdgeStyle;rounded=0;orthogonalLoop=1;jettySize=auto;html=1;" parent="1" source="b73eLgdvhU1wZWccT1lE-7" target="b73eLgdvhU1wZWccT1lE-9" edge="1">
          <mxGeometry relative="1" as="geometry" />
        </mxCell>
        <mxCell id="b73eLgdvhU1wZWccT1lE-85" style="edgeStyle=orthogonalEdgeStyle;rounded=0;orthogonalLoop=1;jettySize=auto;html=1;entryX=0.5;entryY=0;entryDx=0;entryDy=0;entryPerimeter=0;" parent="1" source="b73eLgdvhU1wZWccT1lE-7" target="b73eLgdvhU1wZWccT1lE-10" edge="1">
          <mxGeometry relative="1" as="geometry" />
        </mxCell>
        <mxCell id="b73eLgdvhU1wZWccT1lE-7" value="Оценка моделей прогнозирования" style="rounded=0;whiteSpace=wrap;html=1;" parent="1" vertex="1">
          <mxGeometry x="969" y="670" width="180" height="50" as="geometry" />
        </mxCell>
        <mxCell id="b73eLgdvhU1wZWccT1lE-8" value="*csv с корректными данными для моделирования" style="strokeWidth=2;html=1;shape=mxgraph.flowchart.document2;whiteSpace=wrap;size=0.25;verticalAlign=top;" parent="1" vertex="1">
          <mxGeometry x="827" y="345" width="100" height="90" as="geometry" />
        </mxCell>
        <mxCell id="b73eLgdvhU1wZWccT1lE-9" value="*pickle - лучшая модель для прогнозирования" style="strokeWidth=2;html=1;shape=mxgraph.flowchart.document2;whiteSpace=wrap;size=0.25;verticalAlign=top;" parent="1" vertex="1">
          <mxGeometry x="827" y="650" width="100" height="90" as="geometry" />
        </mxCell>
        <mxCell id="b73eLgdvhU1wZWccT1lE-10" value="Конец" style="strokeWidth=2;html=1;shape=mxgraph.flowchart.terminator;whiteSpace=wrap;" parent="1" vertex="1">
          <mxGeometry x="974" y="760" width="170" height="35" as="geometry" />
        </mxCell>
        <mxCell id="b73eLgdvhU1wZWccT1lE-12" value="Обработка данных" style="rounded=0;whiteSpace=wrap;html=1;" parent="1" vertex="1">
          <mxGeometry x="2140" y="158" width="170" height="42" as="geometry" />
        </mxCell>
        <mxCell id="b73eLgdvhU1wZWccT1lE-14" value="Модуль &#xa;обработки &#xa;данных" style="shape=module;align=left;spacingLeft=20;align=center;verticalAlign=middle;" parent="1" vertex="1">
          <mxGeometry x="1975" y="156" width="120" height="50" as="geometry" />
        </mxCell>
        <mxCell id="b73eLgdvhU1wZWccT1lE-24" style="edgeStyle=orthogonalEdgeStyle;rounded=0;orthogonalLoop=1;jettySize=auto;html=1;entryX=0.5;entryY=0;entryDx=0;entryDy=0;" parent="1" source="b73eLgdvhU1wZWccT1lE-16" target="b73eLgdvhU1wZWccT1lE-17" edge="1">
          <mxGeometry relative="1" as="geometry" />
        </mxCell>
        <mxCell id="b73eLgdvhU1wZWccT1lE-16" value="Создание имитационной модели в Power Factory" style="rounded=0;whiteSpace=wrap;html=1;" parent="1" vertex="1">
          <mxGeometry x="2140" y="225" width="170" height="44" as="geometry" />
        </mxCell>
        <mxCell id="b73eLgdvhU1wZWccT1lE-25" value="" style="edgeStyle=orthogonalEdgeStyle;rounded=0;orthogonalLoop=1;jettySize=auto;html=1;" parent="1" source="b73eLgdvhU1wZWccT1lE-17" target="b73eLgdvhU1wZWccT1lE-18" edge="1">
          <mxGeometry relative="1" as="geometry" />
        </mxCell>
        <mxCell id="b73eLgdvhU1wZWccT1lE-17" value="Технико-экономическая оценка" style="rounded=0;whiteSpace=wrap;html=1;" parent="1" vertex="1">
          <mxGeometry x="2140" y="300" width="170" height="46" as="geometry" />
        </mxCell>
        <mxCell id="b73eLgdvhU1wZWccT1lE-26" value="" style="edgeStyle=orthogonalEdgeStyle;rounded=0;orthogonalLoop=1;jettySize=auto;html=1;" parent="1" source="b73eLgdvhU1wZWccT1lE-18" target="b73eLgdvhU1wZWccT1lE-19" edge="1">
          <mxGeometry relative="1" as="geometry" />
        </mxCell>
        <mxCell id="b73eLgdvhU1wZWccT1lE-18" value="Формирование отчета с рекомендациями" style="rounded=0;whiteSpace=wrap;html=1;" parent="1" vertex="1">
          <mxGeometry x="2140" y="374.88" width="170" height="48" as="geometry" />
        </mxCell>
        <mxCell id="b73eLgdvhU1wZWccT1lE-19" value="Конец" style="strokeWidth=1;html=1;shape=mxgraph.flowchart.terminator;whiteSpace=wrap;" parent="1" vertex="1">
          <mxGeometry x="2140" y="459" width="170" height="40" as="geometry" />
        </mxCell>
        <mxCell id="b73eLgdvhU1wZWccT1lE-22" style="edgeStyle=orthogonalEdgeStyle;rounded=0;orthogonalLoop=1;jettySize=auto;html=1;entryX=0.5;entryY=0;entryDx=0;entryDy=0;" parent="1" source="b73eLgdvhU1wZWccT1lE-20" target="b73eLgdvhU1wZWccT1lE-86" edge="1">
          <mxGeometry relative="1" as="geometry" />
        </mxCell>
        <mxCell id="b73eLgdvhU1wZWccT1lE-20" value="Начало" style="strokeWidth=1;html=1;shape=mxgraph.flowchart.terminator;whiteSpace=wrap;" parent="1" vertex="1">
          <mxGeometry x="2145" y="20" width="160" height="40" as="geometry" />
        </mxCell>
        <mxCell id="b73eLgdvhU1wZWccT1lE-27" value="Модуль &#xa;расчета&#xa; платы за ЭЭ" style="shape=module;align=left;spacingLeft=20;align=center;verticalAlign=middle;" parent="1" vertex="1">
          <mxGeometry x="1975" y="240" width="120" height="73" as="geometry" />
        </mxCell>
        <mxCell id="b73eLgdvhU1wZWccT1lE-29" value="Модуль &#xa;формирования&#xa; финансово-&#xa;экономической &#xa;модели" style="shape=module;align=left;spacingLeft=20;align=center;verticalAlign=middle;" parent="1" vertex="1">
          <mxGeometry x="1975" y="330" width="120" height="77.5" as="geometry" />
        </mxCell>
        <mxCell id="b73eLgdvhU1wZWccT1lE-31" value="" style="shape=curlyBracket;whiteSpace=wrap;html=1;rounded=1;flipH=1;strokeWidth=1;" parent="1" vertex="1">
          <mxGeometry x="2110" y="230" width="20" height="190" as="geometry" />
        </mxCell>
        <mxCell id="b73eLgdvhU1wZWccT1lE-32" value="" style="shape=curlyBracket;whiteSpace=wrap;html=1;rounded=1;flipH=1;strokeWidth=1;" parent="1" vertex="1">
          <mxGeometry x="2110" y="230" width="20" height="190" as="geometry" />
        </mxCell>
        <mxCell id="b73eLgdvhU1wZWccT1lE-33" value="Модуль &#xa;расчета&#xa; платы за ЭЭ" style="shape=module;align=left;spacingLeft=20;align=center;verticalAlign=middle;" parent="1" vertex="1">
          <mxGeometry x="1975" y="240" width="120" height="73" as="geometry" />
        </mxCell>
        <mxCell id="b73eLgdvhU1wZWccT1lE-34" value="Модуль &#xa;формирования&#xa; финансово-&#xa;экономической &#xa;модели" style="shape=module;align=left;spacingLeft=20;align=center;verticalAlign=middle;" parent="1" vertex="1">
          <mxGeometry x="1975" y="330" width="120" height="77.5" as="geometry" />
        </mxCell>
        <mxCell id="b73eLgdvhU1wZWccT1lE-35" value="Модуль &#xa;расчета&#xa; платы за ЭЭ" style="shape=module;align=left;spacingLeft=20;align=center;verticalAlign=middle;" parent="1" vertex="1">
          <mxGeometry x="1975" y="240" width="120" height="73" as="geometry" />
        </mxCell>
        <mxCell id="b73eLgdvhU1wZWccT1lE-36" value="" style="shape=curlyBracket;whiteSpace=wrap;html=1;rounded=1;flipH=1;strokeWidth=1;" parent="1" vertex="1">
          <mxGeometry x="2110" y="139" width="20" height="80" as="geometry" />
        </mxCell>
        <mxCell id="b73eLgdvhU1wZWccT1lE-71" value="" style="edgeStyle=orthogonalEdgeStyle;rounded=0;orthogonalLoop=1;jettySize=auto;html=1;" parent="1" source="b73eLgdvhU1wZWccT1lE-65" target="b73eLgdvhU1wZWccT1lE-3" edge="1">
          <mxGeometry relative="1" as="geometry" />
        </mxCell>
        <mxCell id="b73eLgdvhU1wZWccT1lE-77" style="edgeStyle=orthogonalEdgeStyle;rounded=0;orthogonalLoop=1;jettySize=auto;html=1;entryX=0.5;entryY=0;entryDx=0;entryDy=0;" parent="1" source="b73eLgdvhU1wZWccT1lE-65" target="CSsvvFtggRQ0JvxHW23I-3" edge="1">
          <mxGeometry relative="1" as="geometry" />
        </mxCell>
        <mxCell id="b73eLgdvhU1wZWccT1lE-65" value="Формирование датафрейма для анализа" style="rounded=0;whiteSpace=wrap;html=1;" parent="1" vertex="1">
          <mxGeometry x="969" y="210" width="180" height="50" as="geometry" />
        </mxCell>
        <mxCell id="b73eLgdvhU1wZWccT1lE-74" value="" style="edgeStyle=orthogonalEdgeStyle;rounded=0;orthogonalLoop=1;jettySize=auto;html=1;" parent="1" source="b73eLgdvhU1wZWccT1lE-70" target="b73eLgdvhU1wZWccT1lE-65" edge="1">
          <mxGeometry relative="1" as="geometry" />
        </mxCell>
        <mxCell id="b73eLgdvhU1wZWccT1lE-70" value="Начало" style="strokeWidth=2;html=1;shape=mxgraph.flowchart.terminator;whiteSpace=wrap;" parent="1" vertex="1">
          <mxGeometry x="974" y="150" width="170" height="35" as="geometry" />
        </mxCell>
        <mxCell id="b73eLgdvhU1wZWccT1lE-87" value="" style="edgeStyle=orthogonalEdgeStyle;rounded=0;orthogonalLoop=1;jettySize=auto;html=1;exitX=0.5;exitY=1;exitDx=0;exitDy=0;" parent="1" source="b73eLgdvhU1wZWccT1lE-12" target="b73eLgdvhU1wZWccT1lE-16" edge="1">
          <mxGeometry relative="1" as="geometry">
            <mxPoint x="2200" y="220" as="sourcePoint" />
          </mxGeometry>
        </mxCell>
        <mxCell id="b73eLgdvhU1wZWccT1lE-89" style="edgeStyle=orthogonalEdgeStyle;rounded=0;orthogonalLoop=1;jettySize=auto;html=1;entryX=0.5;entryY=0;entryDx=0;entryDy=0;" parent="1" source="b73eLgdvhU1wZWccT1lE-86" target="b73eLgdvhU1wZWccT1lE-12" edge="1">
          <mxGeometry relative="1" as="geometry" />
        </mxCell>
        <mxCell id="b73eLgdvhU1wZWccT1lE-86" value="Получение исходных данных" style="rounded=0;whiteSpace=wrap;html=1;" parent="1" vertex="1">
          <mxGeometry x="2140" y="90" width="170" height="40" as="geometry" />
        </mxCell>
      </root>
    </mxGraphModel>
  </diagram>
  <diagram id="oIBtntd2S3jkKAt8ycod" name="Page-2">
    <mxGraphModel dx="-296" dy="644" grid="1" gridSize="10" guides="1" tooltips="1" connect="1" arrows="1" fold="1" page="1" pageScale="1" pageWidth="827" pageHeight="1169" math="0" shadow="0">
      <root>
        <mxCell id="0" />
        <mxCell id="1" parent="0" />
        <mxCell id="Olc4277rgILTrr1lNCX6-3" style="edgeStyle=orthogonalEdgeStyle;rounded=0;orthogonalLoop=1;jettySize=auto;html=1;entryX=0.5;entryY=0;entryDx=0;entryDy=0;fontFamily=Times New Roman;" edge="1" parent="1" source="Olc4277rgILTrr1lNCX6-4" target="Olc4277rgILTrr1lNCX6-6">
          <mxGeometry relative="1" as="geometry" />
        </mxCell>
        <mxCell id="Olc4277rgILTrr1lNCX6-4" value="Создание имитационной модели в PowerFactory" style="rounded=0;whiteSpace=wrap;html=1;fontFamily=Times New Roman;" vertex="1" parent="1">
          <mxGeometry x="2140" y="240" width="170" height="44" as="geometry" />
        </mxCell>
        <mxCell id="Olc4277rgILTrr1lNCX6-5" value="" style="edgeStyle=orthogonalEdgeStyle;rounded=0;orthogonalLoop=1;jettySize=auto;html=1;fontFamily=Times New Roman;" edge="1" parent="1" source="Olc4277rgILTrr1lNCX6-6" target="Olc4277rgILTrr1lNCX6-8">
          <mxGeometry relative="1" as="geometry" />
        </mxCell>
        <mxCell id="Olc4277rgILTrr1lNCX6-6" value="Технико-экономическая оценка" style="rounded=0;whiteSpace=wrap;html=1;fontFamily=Times New Roman;" vertex="1" parent="1">
          <mxGeometry x="2140" y="312" width="170" height="46" as="geometry" />
        </mxCell>
        <mxCell id="Olc4277rgILTrr1lNCX6-7" value="" style="edgeStyle=orthogonalEdgeStyle;rounded=0;orthogonalLoop=1;jettySize=auto;html=1;fontFamily=Times New Roman;" edge="1" parent="1" source="Olc4277rgILTrr1lNCX6-8" target="Olc4277rgILTrr1lNCX6-9">
          <mxGeometry relative="1" as="geometry" />
        </mxCell>
        <mxCell id="Olc4277rgILTrr1lNCX6-8" value="Формирование отчета с рекомендациями" style="rounded=0;whiteSpace=wrap;html=1;fontFamily=Times New Roman;" vertex="1" parent="1">
          <mxGeometry x="2140" y="385" width="170" height="48" as="geometry" />
        </mxCell>
        <mxCell id="Olc4277rgILTrr1lNCX6-9" value="Конец" style="strokeWidth=1;html=1;shape=mxgraph.flowchart.terminator;whiteSpace=wrap;fontFamily=Times New Roman;" vertex="1" parent="1">
          <mxGeometry x="2140" y="463" width="170" height="40" as="geometry" />
        </mxCell>
        <mxCell id="Olc4277rgILTrr1lNCX6-10" style="edgeStyle=orthogonalEdgeStyle;rounded=0;orthogonalLoop=1;jettySize=auto;html=1;entryX=0.5;entryY=0;entryDx=0;entryDy=0;fontFamily=Times New Roman;" edge="1" parent="1" source="Olc4277rgILTrr1lNCX6-11" target="Olc4277rgILTrr1lNCX6-22">
          <mxGeometry relative="1" as="geometry" />
        </mxCell>
        <mxCell id="Olc4277rgILTrr1lNCX6-11" value="Начало" style="strokeWidth=1;html=1;shape=mxgraph.flowchart.terminator;whiteSpace=wrap;fontFamily=Times New Roman;" vertex="1" parent="1">
          <mxGeometry x="2145" y="20" width="160" height="40" as="geometry" />
        </mxCell>
        <mxCell id="Olc4277rgILTrr1lNCX6-21" style="edgeStyle=orthogonalEdgeStyle;rounded=0;orthogonalLoop=1;jettySize=auto;html=1;entryX=0.5;entryY=0;entryDx=0;entryDy=0;fontFamily=Times New Roman;" edge="1" parent="1" source="Olc4277rgILTrr1lNCX6-22" target="3ND-Hlq3oIswQlKZ61ZW-1">
          <mxGeometry relative="1" as="geometry">
            <mxPoint x="2225" y="170" as="targetPoint" />
          </mxGeometry>
        </mxCell>
        <mxCell id="Olc4277rgILTrr1lNCX6-22" value="Получение и обработка данных" style="rounded=0;whiteSpace=wrap;html=1;fontFamily=Times New Roman;" vertex="1" parent="1">
          <mxGeometry x="2140" y="94" width="170" height="40" as="geometry" />
        </mxCell>
        <mxCell id="3ND-Hlq3oIswQlKZ61ZW-5" style="edgeStyle=orthogonalEdgeStyle;rounded=0;orthogonalLoop=1;jettySize=auto;html=1;entryX=0.5;entryY=0;entryDx=0;entryDy=0;endArrow=classic;endFill=1;fontFamily=Times New Roman;" edge="1" parent="1" source="3ND-Hlq3oIswQlKZ61ZW-1" target="Olc4277rgILTrr1lNCX6-4">
          <mxGeometry relative="1" as="geometry" />
        </mxCell>
        <mxCell id="3ND-Hlq3oIswQlKZ61ZW-1" value="Выбор генерирующего оборудования" style="rounded=0;whiteSpace=wrap;html=1;fontFamily=Times New Roman;" vertex="1" parent="1">
          <mxGeometry x="2140" y="167" width="170" height="42" as="geometry" />
        </mxCell>
      </root>
    </mxGraphModel>
  </diagram>
</mxfile>
